<mxfile host="65bd71144e">
    <diagram id="Cw3oywGB9g5rqr5ynFMT" name="Page-1">
        <mxGraphModel dx="318" dy="344" grid="1" gridSize="10" guides="1" tooltips="1" connect="1" arrows="1" fold="1" page="1" pageScale="1" pageWidth="850" pageHeight="1100" math="0" shadow="0">
            <root>
                <mxCell id="0"/>
                <mxCell id="1" parent="0"/>
                <mxCell id="10" value="Vertical Tree Layout" style="swimlane;startSize=20;horizontal=1;childLayout=treeLayout;horizontalTree=0;sortEdges=1;resizable=0;containerType=tree;fontSize=12;" vertex="1" parent="1">
                    <mxGeometry x="285" y="400" width="280" height="190" as="geometry"/>
                </mxCell>
                <mxCell id="11" value="Root" style="whiteSpace=wrap;html=1;" vertex="1" parent="10">
                    <mxGeometry x="90" y="40" width="100" height="40" as="geometry"/>
                </mxCell>
                <mxCell id="12" value="Child 1" style="whiteSpace=wrap;html=1;" vertex="1" parent="10">
                    <mxGeometry x="20" y="130" width="100" height="40" as="geometry"/>
                </mxCell>
                <mxCell id="13" value="" style="edgeStyle=elbowEdgeStyle;elbow=vertical;html=1;rounded=1;curved=0;sourcePerimeterSpacing=0;targetPerimeterSpacing=0;startSize=6;endSize=6;" edge="1" parent="10" source="11" target="12">
                    <mxGeometry relative="1" as="geometry"/>
                </mxCell>
                <mxCell id="14" value="Child 2" style="whiteSpace=wrap;html=1;" vertex="1" parent="10">
                    <mxGeometry x="160" y="130" width="100" height="40" as="geometry"/>
                </mxCell>
                <mxCell id="15" value="" style="edgeStyle=elbowEdgeStyle;elbow=vertical;html=1;rounded=1;curved=0;sourcePerimeterSpacing=0;targetPerimeterSpacing=0;startSize=6;endSize=6;" edge="1" parent="10" source="11" target="14">
                    <mxGeometry relative="1" as="geometry"/>
                </mxCell>
            </root>
        </mxGraphModel>
    </diagram>
</mxfile>